<svg id="fac73514-9037-4bd2-92bd-b53ee307136f" data-name="Layer 1" xmlns="http://www.w3.org/2000/svg" width="961.77" height="225.22" viewBox="0 0 961.77 225.22"><defs><style>.b5c43c04-7f44-484d-a35a-768b4af8ab06{fill:#db0809;}</style></defs><title>Logo-Avianca-200012-Horizontal-RGB-Standard</title><path class="b5c43c04-7f44-484d-a35a-768b4af8ab06" d="M788.33,3S808,88.13,865.17,156.16c0,0-66.39-2.11-89.63-47.18C754.17,67.56,769.2,25.2,788.33,3Z" transform="translate(-3.5 -3)"/><path class="b5c43c04-7f44-484d-a35a-768b4af8ab06" d="M886.81,179.16c21.69,20.52,47.64,37.92,78.46,48.61,0,0-41.33,3.41-66.27-8.54s-50.89-32.11-67-33.48-25.44-2.25-29.72-6.59Z" transform="translate(-3.5 -3)"/><path class="b5c43c04-7f44-484d-a35a-768b4af8ab06" d="M923.77,181.05c-10.08-24.08-58.6-24.89-58.6-24.89s13.15,14.66,21.64,23C886.81,179.16,916.42,178.32,923.77,181.05Z" transform="translate(-3.5 -3)"/><path class="b5c43c04-7f44-484d-a35a-768b4af8ab06" d="M124.05,74.05h29.61l26.87,70.6,26-70.6H237L190.38,184.27h-9.85c-4.67,0-11.39-.45-18.22-18.67S124.05,74.05,124.05,74.05Z" transform="translate(-3.5 -3)"/><rect class="b5c43c04-7f44-484d-a35a-768b4af8ab06" x="242.61" y="71.05" width="29.15" height="110.22"/><path class="b5c43c04-7f44-484d-a35a-768b4af8ab06" d="M277.54,43.08a16.86,16.86,0,1,1-16.87-16.85h0a16.84,16.84,0,0,1,16.85,16.85Z" transform="translate(-3.5 -3)"/><path class="b5c43c04-7f44-484d-a35a-768b4af8ab06" d="M506.63,184.27H476.57V109.12s0-15.94-16.85-12.3A60.51,60.51,0,0,0,436,108.21v76.06H406V74.05s26.41-8.2,28.69,10.48c0,0,16.85-14.12,37.8-14.12s34.16,15,34.16,30.51Z" transform="translate(-3.5 -3)"/><path class="b5c43c04-7f44-484d-a35a-768b4af8ab06" d="M385.94,165.26v-57c0-12.75-5.24-38.48-41-38.26C310.79,70.17,298,84.53,298,84.53l11.39,18.22s5.47-9.11,27.33-9.11,19.13,19.13,19.13,19.13c-60.12-.92-63.31,24.13-63.31,39.16s11.38,33.25,33.7,33.25S360,174.25,360,174.25c.91,9.57,11.84,10,11.84,10h17.3C386.39,184.27,385.94,165.26,385.94,165.26Zm-28.7-9s-7.74,5.69-20,5.69-15.94-8-15.94-14.11c0-7.06,4.1-15.49,36-13.67Z" transform="translate(-3.5 -3)"/><path class="b5c43c04-7f44-484d-a35a-768b4af8ab06" d="M715.9,165.26v-57c0-12.75-5.24-38.48-41-38.26-34.15.17-46.9,14.53-46.9,14.53l11.39,18.22s5.47-9.11,27.33-9.11,19.13,19.13,19.13,19.13c-60.12-.92-63.31,24.13-63.31,39.16s11.38,33.25,33.7,33.25,33.7-10.93,33.7-10.93c.91,9.57,11.85,10,11.85,10h17.3C716.35,184.27,715.9,165.26,715.9,165.26Zm-28.7-9s-7.74,5.69-20,5.69-15.94-8-15.94-14.11c0-7.06,4.1-15.49,36-13.67Z" transform="translate(-3.5 -3)"/><path class="b5c43c04-7f44-484d-a35a-768b4af8ab06" d="M609.11,103.66s-9.8-10-29.15-10c-21.41,0-29.61,21-29.61,38.71s13.21,30.06,32.34,30.06c14.35,0,25.51-8.65,25.51-8.65l7.74,21.4s-16.17,11.39-41.9,11.39c-17.76,0-52.38-11.84-52.38-54.65s28.24-61.29,55.57-61c24.36.23,33.93,8.66,33.93,8.66Z" transform="translate(-3.5 -3)"/><path class="b5c43c04-7f44-484d-a35a-768b4af8ab06" d="M84.11,31.24H61.8l-58.3,153H34l12.3-38.71H99.14l15.49,38.71h30.51ZM56.45,121.06,73,75l16.51,46.07Z" transform="translate(-3.5 -3)"/></svg>